<svg width="32" height="32" viewBox="0 0 32 32" fill="none" xmlns="http://www.w3.org/2000/svg">
  <!-- Background circle with gradient -->
  <circle cx="16" cy="16" r="16" fill="url(#background)" />
  
  <!-- Solana-inspired geometric shape -->
  <path d="M8 12c0-1.5 1.5-2.5 3-2l10 2c1.5 0.5 3 1.5 3 3v2c0 1.5-1.5 2.5-3 2l-10-2c-1.5-0.5-3-1.5-3-3v-2z" 
        fill="url(#primary)" />
  
  <!-- Second layer for depth -->
  <path d="M8 18c0-1.5 1.5-2.5 3-2l10 2c1.5 0.5 3 1.5 3 3v2c0 1.5-1.5 2.5-3 2l-10-2c-1.5-0.5-3-1.5-3-3v-2z" 
        fill="url(#secondary)" opacity="0.8" />
  
  <!-- Sparkle elements -->
  <circle cx="11" cy="9" r="1.5" fill="#FFF5D6" opacity="0.9" />
  <circle cx="23" cy="11" r="1" fill="#D7F9F1" opacity="0.8" />
  <circle cx="9" cy="24" r="1" fill="#FFB3C1" opacity="0.7" />
  <circle cx="25" cy="22" r="1.5" fill="#FBE7C6" opacity="0.8" />
  
  <!-- Central highlight -->
  <ellipse cx="16" cy="16" rx="4" ry="2" fill="rgba(255, 255, 255, 0.3)" />
  
  <defs>
    <!-- Background gradient -->
    <linearGradient id="background" x1="0%" y1="0%" x2="100%" y2="100%">
      <stop offset="0%" stop-color="#B4E1FF" />
      <stop offset="50%" stop-color="#FFB3C1" />
      <stop offset="100%" stop-color="#D7F9F1" />
    </linearGradient>
    
    <!-- Primary shape gradient -->
    <linearGradient id="primary" x1="0%" y1="0%" x2="100%" y2="50%">
      <stop offset="0%" stop-color="#FFF5D6" />
      <stop offset="100%" stop-color="#FBE7C6" />
    </linearGradient>
    
    <!-- Secondary shape gradient -->
    <linearGradient id="secondary" x1="0%" y1="50%" x2="100%" y2="100%">
      <stop offset="0%" stop-color="#D7F9F1" />
      <stop offset="100%" stop-color="#B4E1FF" />
    </linearGradient>
  </defs>
</svg>